<svg width="259" height="259" viewBox="0 0 259 259" fill="none" xmlns="http://www.w3.org/2000/svg">
<path d="M129.5 21.5834C69.9949 21.5834 21.5835 69.9948 21.5835 129.5C21.5835 189.005 69.9949 237.417 129.5 237.417C189.005 237.417 237.417 189.005 237.417 129.5C237.417 69.9948 189.005 21.5834 129.5 21.5834ZM129.5 215.833C81.8981 215.833 43.1668 177.102 43.1668 129.5C43.1668 81.898 81.8981 43.1667 129.5 43.1667C177.102 43.1667 215.833 81.898 215.833 129.5C215.833 177.102 177.102 215.833 129.5 215.833Z" fill="#666666"/>
<path d="M140.292 75.5416H118.708V133.968L154.245 169.505L169.505 154.245L140.292 125.032V75.5416Z" fill="#666666"/>
</svg>
